<?xml version="1.0" encoding="UTF-8"?>
<svg id="Layer_2" data-name="Layer 2" xmlns="http://www.w3.org/2000/svg" viewBox="0 0 82.83 99.56">
  <defs>
    <style>
      .cls-1 {
        fill: #89a086;
      }

      .cls-2 {
        fill: none;
        stroke: #6d7a74;
        stroke-linecap: round;
        stroke-miterlimit: 10;
        stroke-width: 3px;
      }
    </style>
  </defs>
  <g id="Layer_1-2" data-name="Layer 1">
    <path class="cls-1" d="M82.79,45.59c0,13.95-3.96,28.43-11.34,37.02-6.4,7.45-23.54,16.95-30.03,16.95-8.61,0-21.96-9.74-29.08-16.52C4.85,75.9,0,57.51,0,43.31,0,21.53,6.12,0,41.42,0s41.38,23.81,41.38,45.59Z"/>
    <path class="cls-2" d="M28.96,83.41s7.7-5.76,12.46-5.76,12.46,5.76,12.46,5.76"/>
    <path class="cls-2" d="M23.76,38.18s8.13,5.14,9.82,9.59c1.69,4.45-.95,13.69-.95,13.69"/>
    <path class="cls-2" d="M59.07,38.18s-8.13,5.14-9.82,9.59.95,13.69.95,13.69"/>
    <path d="M37.37,57.97c1.39-2.3,4.04-2.3,4.04-2.3,0,0,2.65,0,4.04,2.3,1.39,2.3,3.9,15.55,11.71,15.84s10.04.86,17.29-2.02c7.25-2.88,3.63-17.57,5.86-20.45l2.51-.58v-4.9s-18.66-.99-24.52-.99-11.6,6.17-16.9,5.6c-5.3.58-11.04-5.6-16.9-5.6s-24.52.99-24.52.99v4.9l2.51.58c2.23,2.88-1.39,17.57,5.86,20.45,7.25,2.88,9.48,2.3,17.29,2.02s10.32-13.54,11.71-15.84ZM71.2,58.01l-4.67,4.79-.72-.7,4.67-4.79.72.7ZM70.43,53.85l-7.91,8.12-.72-.7,7.91-8.12.72.7Z"/>
  </g>
</svg>